# xmcd
# 
# Track frame offsets:
#     150
#     62719
#     129583
#     158650
#     206128
#     243518
# 
# Disc length: 3582
# 
# Revision: 0
# Processed by: cddbd v1.5.2PL0 Copyright (c) Steve Scherf et al.
# Submitted via: fre:ac v1.0.17
# 
DISCID=510dfc06
DTITLE=Derek and the Dominos - Live at the Fillmore [CD1]
DYEAR=1994
DGENRE=Blues-Rock
TTITLE0=Got To Get Better in a Little While
TTITLE1=Why Does Love Got To Be So Sad
TTITLE2=Key to the Highway
TTITLE3=Blues Power
TTITLE4=Have You Ever Loved a Woman
TTITLE5=Bottle of Red Wine
EXTD=YEAR: 1994
EXTT0=
EXTT1=
EXTT2=
EXTT3=
EXTT4=
EXTT5=
PLAYORDER=
